<?xml version="1.0" encoding="utf-8"?>
<!-- Generator: Adobe Illustrator 16.0.4, SVG Export Plug-In . SVG Version: 6.00 Build 0)  -->
<!DOCTYPE svg PUBLIC "-//W3C//DTD SVG 1.0//EN" "http://www.w3.org/TR/2001/REC-SVG-20010904/DTD/svg10.dtd">
<svg version="1.0" id="Layer_1" xmlns="http://www.w3.org/2000/svg" xmlns:xlink="http://www.w3.org/1999/xlink" x="0px" y="0px"
	 width="985.128px" height="985.375px" viewBox="0 0 985.128 985.375" enable-background="new 0 0 985.128 985.375"
	 xml:space="preserve">
<path fill-rule="evenodd" clip-rule="evenodd" d="M735.446,493.097c-11.886,7.945-23.757,15.904-35.646,23.83
	C586.417,592.505,473.032,668.08,359.647,743.654c-0.927,0.618-1.878,1.204-2.784,1.851c-1.741,1.246-2.586,0.859-2.545-1.319
	c0.021-1.115,0-2.229,0-3.346c0-165.208,0-330.417,0-495.626c0-0.796-0.083-1.604,0.02-2.387c0.153-1.177-0.673-2.879,0.883-3.337
	c0.788-0.232,2.024,0.663,2.92,1.255c8.501,5.615,16.975,11.271,25.452,16.923c115.632,77.084,231.266,154.168,346.876,231.287
	C732.151,490.075,734.204,490.817,735.446,493.097z"/>
<g>
</g>
<g>
</g>
<g>
</g>
<g>
</g>
<g>
</g>
<g>
</g>
<g>
</g>
<g>
</g>
<g>
</g>
<g>
</g>
<g>
</g>
<g>
</g>
<g>
</g>
<g>
</g>
<g>
</g>
</svg>
