<?xml version="1.0" encoding="utf-8"?>
<!-- Generator: Adobe Illustrator 16.0.4, SVG Export Plug-In . SVG Version: 6.00 Build 0)  -->
<!DOCTYPE svg PUBLIC "-//W3C//DTD SVG 1.0//EN" "http://www.w3.org/TR/2001/REC-SVG-20010904/DTD/svg10.dtd">
<svg version="1.0" xmlns="http://www.w3.org/2000/svg" xmlns:xlink="http://www.w3.org/1999/xlink" x="0px" y="0px"
	 width="886.411px" height="485.783px" viewBox="0 0 886.411 485.783" enable-background="new 0 0 886.411 485.783"
	 xml:space="preserve">
<g id="Layer_1" display="none">
	
		<image display="inline" overflow="visible" width="2000" height="1095" xlink:href="../../../../../Users/jamie/Pictures/InsanityDarker.png"  transform="matrix(0.4428 0 0 0.4428 0 0)">
	</image>
</g>
<g id="Layer_2">
	<g>
		<linearGradient id="SVGID_1_" gradientUnits="userSpaceOnUse" x1="121.5024" y1="134.0469" x2="121.5024" y2="73.8809">
			<stop  offset="0" style="stop-color:#FF7300"/>
			<stop  offset="1" style="stop-color:#FE4F16"/>
		</linearGradient>
		<path fill-rule="evenodd" clip-rule="evenodd" fill="url(#SVGID_1_)" d="M145.725,1.207c22.41,1.983,43.408,8.233,62.185,20.925
			c14.575,9.853,25.887,22.487,31.461,39.474c6.258,19.061,3.459,37.267-6.164,54.587c-2.028,3.65-5.422,8.374-7.935,12.332
			c1.691-5.453,3.559-9.13,4.647-16.52c2.269-15.416-0.376-29.66-8.557-42.816c-10.06-16.177-24.792-26.705-42.091-33.937
			c-11.844-4.954-24.209-7.844-37-8.966c-34.168-2.997-65.899,4.122-94.58,23.227C32.583,59.576,20.59,72.52,13.273,89.413
			C8.9,99.511,7.176,110.077,8.116,120.979c0.328,3.812,0.328,3.812,1.32,7.668c-3.439-5.644-6.468-13.319-7.756-19.761
			c-4.243-21.23,1.473-40.111,14.093-57.125C28.852,34.128,46.367,22.184,66.32,13.589C81.074,7.233,96.464,3.25,112.449,1.616
			c3.674-0.376,7.364-0.583,11.044-0.904c0.431-0.038,4.609-0.339,9.202-0.251C138.149,0.564,144.216,1.073,145.725,1.207z"/>
		<linearGradient id="SVGID_2_" gradientUnits="userSpaceOnUse" x1="41.959" y1="134.0479" x2="41.959" y2="73.8809">
			<stop  offset="0" style="stop-color:#FF7300"/>
			<stop  offset="1" style="stop-color:#FE4F16"/>
		</linearGradient>
		<path fill-rule="evenodd" clip-rule="evenodd" fill="url(#SVGID_2_)" d="M33.5,76.793c8.009,0,15.615,0,23.558,0
			c-0.207,2.501-0.353,4.965-0.624,7.416c-1.441,13.038-2.929,26.073-4.366,39.112c-0.525,4.761-1.54,16.098-1.54,16.098
			c-7.304,0.117-15.903,0.082-23.669,0.082C29.085,118.486,31.284,97.723,33.5,76.793z"/>
		<linearGradient id="SVGID_3_" gradientUnits="userSpaceOnUse" x1="196.7207" y1="134.0469" x2="196.7207" y2="73.8811">
			<stop  offset="0" style="stop-color:#FF7300"/>
			<stop  offset="1" style="stop-color:#FE4F16"/>
		</linearGradient>
		<path fill-rule="evenodd" clip-rule="evenodd" fill="url(#SVGID_3_)" d="M188.329,76.866c7.857,0,15.578,0,23.565,0
			c-0.359,3.628-0.68,7.121-1.055,10.608c-0.687,6.371-1.4,12.739-2.107,19.106c-0.837,7.538-1.679,15.076-2.52,22.612
			c-0.32,2.854-0.946,10.314-0.946,10.314c-6.505-0.05-17.214-0.053-23.719,0.004c0,0,1.4-11.896,1.919-16.876
			c0.664-6.373,1.357-12.742,2.039-19.112c0.827-7.691,1.656-15.38,2.479-23.071C188.107,79.294,188.208,78.132,188.329,76.866z"/>
		<linearGradient id="SVGID_4_" gradientUnits="userSpaceOnUse" x1="21.1606" y1="134.0479" x2="21.1606" y2="73.8811">
			<stop  offset="0" style="stop-color:#FF7300"/>
			<stop  offset="1" style="stop-color:#FE4F16"/>
		</linearGradient>
		<path fill-rule="evenodd" clip-rule="evenodd" fill="url(#SVGID_4_)" d="M14.827,125.383c1.261-11.845,2.474-23.247,3.692-34.695
			c3.101,0,5.941,0,8.975,0c-0.81,7.325-1.614,14.489-2.392,21.657c-0.38,3.516-1.542,13.038-1.542,13.038
			S17.302,125.383,14.827,125.383z"/>
		<linearGradient id="SVGID_5_" gradientUnits="userSpaceOnUse" x1="217.7075" y1="134.0469" x2="217.7075" y2="73.8828">
			<stop  offset="0" style="stop-color:#FF7300"/>
			<stop  offset="1" style="stop-color:#FE4F16"/>
		</linearGradient>
		<path fill-rule="evenodd" clip-rule="evenodd" fill="url(#SVGID_5_)" d="M223.917,90.588c-0.395,3.897-0.737,7.47-1.124,11.037
			c-0.68,6.298-2.577,23.705-2.577,23.705s-7.078,0-8.718,0c0.275-3.072,0.501-5.974,0.799-8.869
			c0.672-6.524,1.383-13.045,2.073-19.568c0.169-1.613,0.312-4.723,0.511-6.305C214.881,90.588,221.134,90.588,223.917,90.588z"/>
	</g>
	<g>
		<path d="M508.769,457.516c0-2-0.5-3.5-1-5"/>
		<g>
			<path d="M510.269,457.516c-0.029-1.875-0.465-3.63-1.054-5.398c-0.607-1.826-3.505-1.044-2.893,0.797
				c0.505,1.518,0.921,2.992,0.946,4.602C507.299,459.448,510.299,459.451,510.269,457.516L510.269,457.516z"/>
		</g>
	</g>
	<g>
		
			<linearGradient id="SVGID_6_" gradientUnits="userSpaceOnUse" x1="510.1084" y1="487.4658" x2="510.1084" y2="370.9294" gradientTransform="matrix(0.9869 0.0077 -0.0383 1.013 23.0293 -8.9407)">
			<stop  offset="0" style="stop-color:#FF7300"/>
			<stop  offset="1" style="stop-color:#FE4F16"/>
		</linearGradient>
		<path fill="url(#SVGID_6_)" d="M484.406,485.568L506.649,377.8l15.34-6.945l13.753,0.106l-23.697,114.822L484.406,485.568z"/>
		<linearGradient id="SVGID_7_" gradientUnits="userSpaceOnUse" x1="570.6104" y1="488.0156" x2="570.6104" y2="371.4772">
			<stop  offset="0" style="stop-color:#FF7300"/>
			<stop  offset="1" style="stop-color:#FE4F16"/>
		</linearGradient>
		<path fill="url(#SVGID_7_)" d="M538.238,485.016c-6.976,0-10.821-5.837-9.294-14.106l15.763-85.287
			c1.529-8.269,7.532-14.106,14.508-14.106h43.638c6.977,0,10.959,5.838,9.432,14.106l-15.763,85.287
			c-1.528,8.27-7.531,14.106-14.645,14.106H538.238z M571.861,400.053l-10.488,56.75h7.798l10.488-56.75H571.861z"/>
		<linearGradient id="SVGID_8_" gradientUnits="userSpaceOnUse" x1="645.7383" y1="488.0156" x2="645.7383" y2="371.4772">
			<stop  offset="0" style="stop-color:#FF7300"/>
			<stop  offset="1" style="stop-color:#FE4F16"/>
		</linearGradient>
		<path fill="url(#SVGID_8_)" d="M671.336,470.909c-1.494,8.27-7.364,14.106-14.186,14.106h-54.434l5.099-28.213h36.913
			l2.843-15.728h-21.133l3.193-17.674l18.649-17.349l1.085-6h-26.615l-2.074-14.431l2.547-14.106h65.536l-4.893,27.079
			l-14.679,18.321c7.238,0.648,10.907,5.513,9.237,14.755L671.336,470.909z"/>
		<linearGradient id="SVGID_9_" gradientUnits="userSpaceOnUse" x1="760.1416" y1="488.0156" x2="760.1416" y2="371.4772">
			<stop  offset="0" style="stop-color:#FF7300"/>
			<stop  offset="1" style="stop-color:#FE4F16"/>
		</linearGradient>
		<path fill="url(#SVGID_9_)" d="M753.373,450.642l-1.13,6.161h37.301l-5.171,28.213h-67.006l6.895-37.617
			c1.692-9.242,4.001-14.431,11.538-19.294l33.476-22.052l1.099-6h-32.689l-2.103-14.431l2.585-14.106h55.205
			c6.918,0,10.731,5.838,9.215,14.106l-4.753,25.943c-1.663,9.079-3.76,14.592-11.539,19.295L753.373,450.642z"/>
		<linearGradient id="SVGID_10_" gradientUnits="userSpaceOnUse" x1="812.9814" y1="488.0156" x2="812.9814" y2="371.4771">
			<stop  offset="0" style="stop-color:#FF7300"/>
			<stop  offset="1" style="stop-color:#FE4F16"/>
		</linearGradient>
		<path fill="url(#SVGID_10_)" d="M807.786,484.832h-12.067l8.738-46.275h25.786l-1.084,5.75l-2.983,5.884h-11.851l-1.409,7.472
			h11.85l-2.185,11.567h-11.85L807.786,484.832z"/>
		<linearGradient id="SVGID_11_" gradientUnits="userSpaceOnUse" x1="847.0361" y1="488.0156" x2="847.0361" y2="371.4771">
			<stop  offset="0" style="stop-color:#FF7300"/>
			<stop  offset="1" style="stop-color:#FE4F16"/>
		</linearGradient>
		<path fill="url(#SVGID_11_)" d="M840.93,462.618h-0.916l-4.108,22.214h-11.549l1.064-5.752l11.378-40.523h13.167l-0.512,18.245
			h0.808l6.232-18.245h13.223l-3.661,40.523l-1.064,5.752h-11.493l4.107-22.214h-0.971l-7.023,22.214h-9.875L840.93,462.618z"/>
		<linearGradient id="SVGID_12_" gradientUnits="userSpaceOnUse" x1="703.3936" y1="488.0156" x2="703.3936" y2="371.4769">
			<stop  offset="0" style="stop-color:#FF7300"/>
			<stop  offset="1" style="stop-color:#FE4F16"/>
		</linearGradient>
		<path fill="url(#SVGID_12_)" d="M690.771,431.349c0.792-6.995,7.083-12.666,14.056-12.666c6.971,0,11.981,5.671,11.189,12.666
			c-0.791,6.995-7.083,12.666-14.056,12.666C694.99,444.015,689.98,438.344,690.771,431.349z"/>
	</g>
	<g>
		<g>
			<path fill-rule="evenodd" clip-rule="evenodd" fill="#EEEEEE" d="M109.902,197.291c-7.109-6.47-14.004-12.72-20.872-19.002
				c-9.49-8.675-18.943-17.393-28.462-26.038c-0.921-0.836-1.267-1.533-1.128-2.812c2.66-24.471,5.258-48.95,7.869-73.427
				c0.596-5.587,1.321-11.163,1.744-16.762c0.212-2.812,1.913-4.379,3.864-5.851c5.727-4.319,12.338-6.701,19.242-8.167
				c23.1-4.907,46.23-5.151,69.282,0.281c6.065,1.429,11.825,3.73,16.567,8.071c1.985,1.815,2.58,3.742,2.268,6.467
				c-1.972,17.185-3.756,34.39-5.593,51.589c-1.358,12.717-2.687,25.437-4.091,38.148c-0.078,0.704-0.57,1.549-1.134,1.984
				c-14.343,11.009-28.721,21.972-43.091,32.944C120.918,188.875,115.472,193.036,109.902,197.291z"/>
			<path fill="#EEEEEE" d="M232.184,255.2l0.068-61.864l2.154-22.711h40.399l-17.333,182.723h-46.399l-12.602-84.312h-3.4
				l-0.244,61.604l-2.154,22.708h-40.199l17.333-182.723h46.399l12.377,84.575H232.184z"/>
			<path fill="#EEEEEE" d="M278.013,231.708l3.64-38.372c1.263-13.313,9.354-22.711,19.754-22.711h75.999l-2.129,22.45
				l-9.028,23.492h-43l-0.792,8.354l34.855,33.151c8.807,8.354,10.24,16.445,8.853,31.062l-3.937,41.506
				c-1.263,13.312-9.354,22.708-19.554,22.708h-76.199l4.333-45.679h49.799l1.139-12.01l-34.879-32.891
				C278.083,254.156,276.626,246.325,278.013,231.708z"/>
			<path fill="#EEEEEE" d="M478.501,170.625h-72.797l-37.751,160.015l-2.576,22.708h43.599l6.975-36.806h19.2l-1.574,36.806h43.798
				l2.576-22.708L478.501,170.625z M435.206,312.406c-2.249,0.086-16.564,0.014-18.729-0.003c0.053-0.864,6.186-33.713,6.186-33.713
				l14.293,0.026C436.956,278.717,435.581,301.564,435.206,312.406z M443.749,219.043c-0.486,2.132-1.663,3.857-3.398,5.186
				c-0.396,0.303-0.55,0.48-1.058,0.552c-0.572,15.757-1.635,32.51-2.211,48.366h-13.774c2.854-15.866,5.712-31.859,8.555-47.662
				c-0.376-0.242-0.84-0.413-1.175-0.682c-2.766-2.22-3.649-5.088-2.591-8.458c1.252-3.986,5.227-6.326,8.486-6.398
				C440.899,209.852,444.979,213.671,443.749,219.043z"/>
			<path fill="#EEEEEE" d="M567.879,255.2l0.982-61.864l2.489-22.711h40.398l-20.028,182.723h-46.398l-11.357-84.312h-3.4
				l-1.153,61.604l-2.489,22.708h-40.199l20.028-182.723h46.4l11.128,84.575H567.879z"/>
			<path fill="#EEEEEE" d="M601.739,353.349l19.996-182.723h43.6l-19.996,182.723H601.739z"/>
			<path fill="#EEEEEE" d="M670.313,216.567l5.035-45.942h97.998l-2.489,22.711l-9.546,23.231h-21l-14.993,136.781H681.52
				l14.993-136.781H670.313z"/>
			<path fill="#EEEEEE" d="M769.845,193.336l2.154-22.711h43.799l3.867,71.001h3.199l17.535-71.001h43.598l-2.154,22.711
				l-44.648,110.155l-4.729,49.857h-43.6l4.729-49.857L769.845,193.336z"/>
			<polygon fill="#EEEEEE" points="70.902,178.682 39.103,471.016 121.769,471.016 152.475,179.682 107.769,213.682 			"/>
		</g>
		<g>
			<polygon fill="#EEEEEE" points="252.459,113.56 255.321,113.528 258.297,139.327 266.421,113.406 269.558,113.369 
				271.687,138.937 280.481,113.25 283.401,113.217 272.456,144.256 269.455,144.289 267.339,118.754 259.42,144.4 256.065,144.438 
							"/>
			<path fill="#EEEEEE" d="M271.627,139.421l8.926-26.072l2.706-0.03l-10.874,30.839l-2.838,0.03l-2.135-25.771l-0.089,0.001
				l-7.976,25.884l-3.192,0.036l-3.582-30.679l2.66-0.029l3.02,26.177l8.243-26.301l2.971-0.035L271.627,139.421z"/>
			<polygon fill="#EEEEEE" points="294.057,113.104 297.007,113.071 300.047,138.885 308.48,112.944 311.712,112.909 
				313.876,138.486 323.002,112.781 326.011,112.748 314.66,143.791 311.568,143.828 309.417,118.288 301.198,143.943 
				297.737,143.981 			"/>
			<path fill="#EEEEEE" d="M313.816,138.956l9.257-26.076l2.795-0.03l-11.278,30.842l-2.93,0.035l-2.17-25.773l-0.091,0.003
				l-8.274,25.888l-3.299,0.036l-3.656-30.677l2.749-0.031l3.083,26.178l8.552-26.307l3.068-0.033L313.816,138.956z"/>
			<polygon fill="#EEEEEE" points="335.655,112.649 338.736,112.613 341.871,138.446 350.768,112.479 354.146,112.44 
				356.362,138.042 365.984,112.309 369.127,112.27 357.172,143.323 353.94,143.359 351.738,117.807 343.066,143.483 
				339.448,143.524 			"/>
			<path fill="#EEEEEE" d="M356.301,138.491l9.753-26.083l2.927-0.036l-11.878,30.852l-3.071,0.034l-2.22-25.768h-0.096
				l-8.722,25.894l-3.457,0.039l-3.769-30.675l2.88-0.034l3.176,26.177l9.015-26.312l3.215-0.037L356.301,138.491z"/>
			<polygon fill="#EEEEEE" points="378.334,142.525 379.056,137.593 382.038,137.6 381.315,142.532 			"/>
			<path fill="#EEEEEE" d="M378.45,142.426l0.693-4.732l2.779,0.006l-0.693,4.732L378.45,142.426z"/>
			<path fill="#EEEEEE" d="M399.767,142.568l4.108-28.053l2.486,0.004l-4.108,28.053L399.767,142.568z M404.622,108.637l0.73-4.985
				l2.715,0.005l-0.73,4.986L404.622,108.637z"/>
			<path fill="#EEEEEE" d="M404.737,108.537l0.701-4.785l2.513,0.005l-0.701,4.786L404.737,108.537z M399.883,142.469l4.079-27.854
				l2.284,0.004l-4.079,27.854L399.883,142.469z"/>
			<path fill="#EEEEEE" d="M432.885,142.634l2.678-18.29c0.363-2.475,0.247-4.355-0.345-5.589c-0.582-1.213-1.778-1.83-3.555-1.833
				h0c-0.701,0-1.357,0.149-1.964,0.443c-0.616,0.297-1.199,0.698-1.733,1.191c-0.535,0.493-1.018,1.064-1.436,1.699
				c-0.419,0.637-0.772,1.318-1.051,2.023c-0.356,0.887-0.623,1.75-0.792,2.564c-0.168,0.808-0.326,1.71-0.469,2.683l-2.209,15.088
				l-2.487-0.005l4.108-28.053l2.487,0.005l-0.532,3.632c1.038-1.238,2.084-2.27,3.112-3.069c1.111-0.865,2.375-1.304,3.757-1.304
				c1.245,0.002,2.358,0.308,3.325,0.909c0.971,0.605,1.716,1.665,2.216,3.151c0.338,1.014,0.476,2.068,0.409,3.132
				c-0.065,1.053-0.184,2.169-0.352,3.316l-2.682,18.314L432.885,142.634z"/>
			<path fill="#EEEEEE" d="M421.923,142.513l-2.285-0.005l4.079-27.854l2.285,0.005l-0.567,3.871
				c1.113-1.361,2.221-2.471,3.324-3.329c1.102-0.858,2.339-1.286,3.71-1.283c1.218,0.002,2.303,0.3,3.258,0.894
				c0.954,0.595,1.679,1.626,2.174,3.098c0.335,1.005,0.47,2.036,0.404,3.094c-0.066,1.058-0.183,2.16-0.351,3.308l-2.669,18.229
				l-2.284-0.005l2.662-18.176c0.368-2.508,0.249-4.391-0.354-5.647c-0.603-1.257-1.818-1.887-3.646-1.89
				c-0.711-0.002-1.381,0.149-2.008,0.453c-0.629,0.304-1.214,0.706-1.758,1.207s-1.027,1.073-1.451,1.718
				c-0.423,0.644-0.778,1.325-1.061,2.042c-0.36,0.896-0.625,1.756-0.796,2.58c-0.172,0.825-0.328,1.721-0.47,2.688L421.923,142.513
				z"/>
			<path fill="#EEEEEE" d="M458.854,143.016c-1.18,0-2.205-0.041-3.048-0.534c-0.84-0.491-1.527-1.078-2.043-1.951
				c-0.515-0.875-0.87-1.847-1.057-2.996c-0.188-1.146-0.21-2.377-0.066-3.711l-0.187-0.076l2.315,0.018v0.1
				c0,2.369,0.59,4.059,1.354,5.023c0.759,0.958,2.096,1.445,3.783,1.448l0,0c0.83,0,1.611-0.14,2.239-0.416
				c0.638-0.28,1.215-0.661,1.666-1.131c0.454-0.473,0.842-1.015,1.129-1.612c0.287-0.6,0.489-1.242,0.587-1.907
				c0.194-1.326,0.04-2.323-0.466-2.963c-0.51-0.647-1.206-1.163-2.071-1.534c-0.874-0.374-1.846-0.701-2.89-0.97
				c-1.058-0.272-2.03-0.686-2.894-1.229c-0.875-0.548-1.562-1.341-2.041-2.358c-0.481-1.018-0.589-2.466-0.319-4.307
				c0.343-2.339,1.242-4.283,2.673-5.777c1.434-1.495,3.284-2.252,5.499-2.252c2.174,0.004,3.848,0.698,4.998,2.062
				c1.147,1.361,1.636,3.657,1.452,6.824l-0.005,0.094l-2.522-0.004l0.006-0.105c0.111-2.112-0.239-3.617-1.04-4.474
				c-0.799-0.855-1.92-1.29-3.331-1.292c-1.42,0-2.571,0.431-3.436,1.282c-0.869,0.856-1.414,2.003-1.62,3.409
				c-0.178,1.221-0.013,2.164,0.491,2.802c0.51,0.647,1.206,1.182,2.068,1.589c0.869,0.411,1.836,0.782,2.871,1.103
				c1.05,0.327,2.017,0.795,2.873,1.392c0.862,0.601,1.543,1.42,2.024,2.437c0.48,1.019,0.59,2.449,0.324,4.253
				c-0.193,1.331-0.575,2.527-1.134,3.555c-0.561,1.027-1.258,1.896-2.072,2.581c-0.817,0.685-1.756,0.993-2.789,1.333
				c-1.027,0.338-2.139,0.298-3.303,0.298H458.854z"/>
			<path fill="#EEEEEE" d="M455.062,133.864c0.004,2.402,0.396,4.098,1.179,5.085c0.782,0.988,2.036,1.483,3.763,1.486
				c0.836,0.002,1.58-0.139,2.23-0.425c0.652-0.286,1.21-0.67,1.674-1.153s0.842-1.029,1.135-1.638
				c0.292-0.609,0.489-1.255,0.589-1.936c0.2-1.362,0.036-2.375-0.489-3.04c-0.523-0.665-1.229-1.186-2.111-1.563
				c-0.885-0.379-1.852-0.703-2.904-0.975s-2.008-0.677-2.867-1.217c-0.862-0.54-1.529-1.311-2.003-2.316
				c-0.476-1.005-0.579-2.421-0.312-4.25c0.342-2.329,1.225-4.237,2.646-5.723c1.424-1.484,3.239-2.227,5.448-2.222
				c2.132,0.004,3.766,0.681,4.9,2.026c1.136,1.348,1.611,3.6,1.429,6.754l-2.322-0.004c0.113-2.152-0.243-3.667-1.066-4.548
				c-0.822-0.88-1.959-1.321-3.404-1.324c-1.446-0.003-2.615,0.435-3.506,1.311c-0.89,0.877-1.438,2.033-1.648,3.466
				c-0.184,1.256-0.014,2.214,0.512,2.879c0.523,0.665,1.226,1.203,2.104,1.617c0.879,0.415,1.84,0.784,2.885,1.108
				c1.044,0.325,1.992,0.784,2.845,1.378s1.516,1.393,1.991,2.397c0.475,1.005,0.58,2.403,0.316,4.195
				c-0.193,1.327-0.568,2.501-1.123,3.521c-0.557,1.021-1.24,1.872-2.049,2.552c-0.811,0.679-1.73,1.188-2.756,1.526
				c-1.029,0.339-2.125,0.507-3.292,0.505s-2.166-0.246-2.997-0.732c-0.83-0.485-1.499-1.159-2.008-2.021
				c-0.507-0.861-0.857-1.865-1.044-3.015c-0.188-1.147-0.208-2.385-0.065-3.711L455.062,133.864z"/>
			<path fill="#EEEEEE" d="M489.623,143.016c-0.871,0-1.699,0.072-2.462-0.256c-0.765-0.33-1.415-0.728-1.934-1.422
				c-0.516-0.689-0.885-1.485-1.098-2.482c-0.213-0.993-0.219-2.16-0.019-3.529c0.697-4.757,3.456-7.587,8.2-8.443l3.246-0.577
				c0.443-0.07,0.969-0.173,1.585-0.316c0.603-0.138,1.115-0.33,1.522-0.574c0.393-0.235,0.677-0.639,0.846-1.205
				c0.173-0.587,0.297-1.134,0.37-1.625c0.236-1.618,0.062-2.963-0.518-3.999c-0.573-1.02-1.739-1.539-3.468-1.542
				c-0.784,0-1.515,0.097-2.185,0.288c-0.673,0.191-1.293,0.527-1.844,0.999c-0.555,0.473-1.053,1.114-1.479,1.904
				c-0.431,0.797-0.789,1.811-1.064,3.012l-0.018,0.078l-2.523-0.005l0.022-0.119c0.319-1.65,0.8-3.08,1.429-4.247
				c0.629-1.168,1.372-2.136,2.209-2.875c0.842-0.74,1.778-1.288,2.783-1.627c1.001-0.338,2.046-0.51,3.105-0.51
				c1.024,0.002,1.955,0.16,2.794,0.469c0.843,0.31,1.555,0.81,2.114,1.486c0.558,0.675,0.945,1.587,1.153,2.711
				c0.206,1.12,0.19,2.506-0.046,4.121l-2.221,15.163c-0.179,1.223-0.143,2.002,0.105,2.317c0.09,0.115,0.232,0.171,0.438,0.171
				c0.327,0,0.798-0.147,1.398-0.436l0.169-0.082l-0.404,2.771l-0.884,0.342c-0.372,0.146-0.732,0.22-1.069,0.22
				c-0.37,0-0.719-0.057-1.043-0.168c-0.381-0.073-0.685-0.259-0.889-0.549c-0.195-0.279-0.338-0.618-0.426-1.005
				c-0.086-0.378-0.121-0.791-0.106-1.261c0.011-0.344,0.039-0.701,0.086-1.081c-1.127,1.372-2.344,2.2-3.62,2.938
				c-1.366,0.789-2.794,0.947-4.242,0.947H489.623z M499.057,128.214c-0.994,0.523-1.986,0.874-2.951,1.042
				c-1.004,0.175-2.026,0.318-3.039,0.425c-1.753,0.174-3.194,0.725-4.283,1.636c-1.089,0.909-1.779,2.316-2.053,4.183
				c-0.123,0.844-0.112,1.583,0.033,2.195s0.382,1.124,0.703,1.521c0.32,0.398,0.723,0.697,1.196,0.888
				c0.475,0.192,0.979,0.29,1.5,0.291l0,0c0.909,0,1.812-0.159,2.701-0.473c0.896-0.316,1.733-0.806,2.487-1.455
				c0.756-0.65,1.417-1.49,1.966-2.497c0.547-1.002,0.927-2.212,1.13-3.596L499.057,128.214z"/>
			<path fill="#EEEEEE" d="M495.575,126.413c0.443-0.07,0.971-0.177,1.59-0.32c0.616-0.142,1.134-0.338,1.552-0.588
				c0.417-0.25,0.713-0.672,0.89-1.263c0.174-0.591,0.299-1.138,0.373-1.64c0.241-1.649,0.064-3.003-0.529-4.062
				c-0.594-1.058-1.779-1.59-3.555-1.594c-0.787-0.001-1.524,0.096-2.212,0.292c-0.689,0.196-1.316,0.535-1.882,1.019
				c-0.566,0.483-1.067,1.128-1.502,1.933c-0.436,0.806-0.795,1.819-1.074,3.037l-2.322-0.005c0.318-1.648,0.791-3.055,1.418-4.219
				s1.356-2.113,2.188-2.848c0.832-0.731,1.747-1.269,2.749-1.607s2.036-0.508,3.101-0.505c0.99,0.002,1.9,0.156,2.732,0.463
				c0.831,0.306,1.521,0.792,2.071,1.456c0.55,0.665,0.927,1.554,1.132,2.665c0.205,1.112,0.19,2.475-0.046,4.088l-2.221,15.163
				c-0.184,1.256-0.144,2.053,0.126,2.394c0.266,0.343,0.918,0.264,1.957-0.237l-0.369,2.526c-0.189,0.073-0.465,0.179-0.829,0.321
				s-0.71,0.214-1.04,0.213c-0.355,0-0.689-0.055-1.004-0.163c-0.37-0.072-0.649-0.243-0.839-0.512
				c-0.188-0.27-0.325-0.593-0.41-0.97c-0.086-0.377-0.118-0.788-0.104-1.236c0.015-0.449,0.06-0.923,0.133-1.426
				c-1.187,1.504-2.457,2.648-3.816,3.436c-1.359,0.784-2.762,1.178-4.208,1.175c-0.863-0.002-1.671-0.166-2.423-0.489
				c-0.752-0.324-1.383-0.828-1.893-1.511c-0.509-0.681-0.869-1.516-1.08-2.503c-0.211-0.985-0.217-2.16-0.018-3.523
				c0.693-4.731,3.4-7.523,8.119-8.374L495.575,126.413z M499.185,128.032c-1.049,0.573-2.081,0.948-3.097,1.125
				c-1.017,0.178-2.028,0.318-3.032,0.424c-1.777,0.177-3.225,0.729-4.337,1.659c-1.114,0.931-1.809,2.345-2.087,4.245
				c-0.126,0.859-0.115,1.604,0.034,2.232c0.149,0.627,0.39,1.148,0.723,1.561c0.333,0.414,0.745,0.72,1.237,0.918
				c0.49,0.198,1.004,0.297,1.537,0.298c0.913,0.002,1.824-0.157,2.734-0.479s1.75-0.812,2.52-1.474s1.432-1.504,1.988-2.524
				s0.936-2.23,1.141-3.629L499.185,128.032z"/>
			<path fill="#EEEEEE" d="M530.198,142.825l2.678-18.29c0.362-2.475,0.246-4.356-0.344-5.59c-0.582-1.212-1.779-1.829-3.557-1.833
				l0,0c-0.7,0-1.356,0.149-1.964,0.443c-0.617,0.298-1.199,0.698-1.731,1.19c-0.535,0.492-1.019,1.063-1.438,1.7
				c-0.42,0.639-0.773,1.32-1.052,2.023c-0.356,0.888-0.622,1.75-0.791,2.564c-0.172,0.826-0.33,1.729-0.47,2.683l-2.209,15.088
				l-2.485-0.005l4.108-28.053l2.484,0.005l-0.531,3.632c1.041-1.24,2.087-2.271,3.112-3.07c1.112-0.865,2.377-1.304,3.759-1.304
				c1.244,0.002,2.358,0.308,3.324,0.91c0.969,0.603,1.715,1.662,2.216,3.15c0.338,1.013,0.476,2.066,0.409,3.132
				c-0.066,1.055-0.185,2.171-0.353,3.316l-2.682,18.314L530.198,142.825z"/>
			<path fill="#EEEEEE" d="M519.235,142.704l-2.284-0.005l4.079-27.854l2.283,0.005l-0.566,3.871
				c1.114-1.36,2.222-2.471,3.324-3.329c1.104-0.858,2.341-1.286,3.711-1.283c1.218,0.002,2.303,0.3,3.258,0.895
				c0.955,0.594,1.678,1.625,2.174,3.097c0.335,1.005,0.47,2.036,0.404,3.094c-0.066,1.058-0.184,2.16-0.352,3.308l-2.669,18.229
				l-2.284-0.005l2.661-18.176c0.367-2.508,0.249-4.391-0.353-5.647c-0.604-1.257-1.818-1.886-3.646-1.89
				c-0.711-0.002-1.38,0.149-2.008,0.453c-0.629,0.304-1.214,0.706-1.756,1.207c-0.545,0.501-1.028,1.073-1.453,1.718
				c-0.423,0.645-0.777,1.325-1.061,2.042c-0.359,0.896-0.625,1.756-0.796,2.58c-0.172,0.825-0.329,1.721-0.471,2.688
				L519.235,142.704z"/>
			<path fill="#EEEEEE" d="M548.993,142.865l4.107-28.053l2.486,0.004l-4.108,28.053L548.993,142.865z M553.848,108.934l0.729-4.985
				l2.715,0.005l-0.73,4.985L553.848,108.934z"/>
			<path fill="#EEEEEE" d="M553.963,108.834l0.7-4.785l2.514,0.005l-0.701,4.785L553.963,108.834z M549.108,142.766l4.078-27.854
				l2.285,0.004l-4.079,27.854L549.108,142.766z"/>
			<path fill="#EEEEEE" d="M573.056,144.016c-1.174,0-2.021-0.604-2.517-1.439c-0.488-0.825-0.58-2.392-0.273-4.484l2.968-20.31
				l-2.779,0.052l0.424-2.819h2.779l1.134-7.825l2.486-0.036l-1.134,7.723l3.691-0.002l-0.423,2.882l-3.692-0.01l-2.782,19.003
				c-0.099,0.68-0.174,1.268-0.222,1.769c-0.048,0.488-0.032,0.894,0.044,1.205c0.074,0.298,0.219,0.506,0.441,0.636
				c0.23,0.134,0.58,0.202,1.041,0.203l0,0c0.309,0,0.607-0.034,0.927-0.103c0.325-0.07,0.646-0.159,0.962-0.264l0.153-0.052
				l-0.419,2.862l-0.065,0.016c-0.283,0.069-0.669,0.369-1.146,0.546c-0.49,0.181-1.024,0.446-1.589,0.446H573.056z"/>
			<path fill="#EEEEEE" d="M575.776,142.926c-0.289,0.07-0.675,0.195-1.158,0.375c-0.482,0.178-1.004,0.267-1.562,0.266
				c-1.143-0.003-1.951-0.408-2.431-1.216c-0.478-0.808-0.565-2.251-0.261-4.331l2.984-20.38l-2.779-0.005l0.395-2.688l2.779,0.005
				l1.134-7.743l2.285,0.005l-1.134,7.743l3.691,0.008l-0.394,2.688l-3.692-0.008l-2.795,19.09c-0.1,0.682-0.175,1.272-0.223,1.774
				c-0.049,0.502-0.033,0.914,0.047,1.238c0.08,0.322,0.242,0.556,0.487,0.699c0.247,0.144,0.61,0.216,1.092,0.217
				c0.306,0.001,0.62-0.034,0.948-0.105c0.328-0.07,0.652-0.16,0.972-0.267L575.776,142.926z"/>
			<path fill="#EEEEEE" d="M591.508,154.016c-0.415,0-0.808-0.086-1.166-0.159c-0.356-0.072-0.688-0.188-0.984-0.298l-0.075-0.04
				l0.477-3.259l1.008,0.24c0.3,0.07,0.613,0.104,0.93,0.105c0.603,0,1.145-0.276,1.612-0.821c0.479-0.562,0.916-1.25,1.298-2.045
				c0.38-0.795,0.727-1.641,1.031-2.512c0.306-0.876,0.622-1.63,0.94-2.241l-3.572-28.095l2.754,0.005l2.78,23.645l9.701-23.62
				l2.691,0.005l-11.427,27.6c-0.708,1.738-1.385,3.331-2.009,4.732c-0.62,1.389-1.246,2.596-1.862,3.585
				c-0.617,0.99-1.261,1.804-1.915,2.327c-0.66,0.529-1.401,0.845-2.203,0.845H591.508z"/>
			<path fill="#EEEEEE" d="M589.842,150.377c0.294,0.071,0.595,0.144,0.901,0.217c0.307,0.071,0.625,0.108,0.953,0.109
				c0.635,0.001,1.197-0.284,1.688-0.855c0.488-0.573,0.925-1.262,1.312-2.066c0.385-0.806,0.729-1.646,1.036-2.521
				c0.306-0.877,0.617-1.619,0.935-2.228l-3.548-28.041l2.552,0.005l2.814,23.94l9.823-23.915l2.475,0.005l-11.37,27.462
				c-0.715,1.755-1.385,3.332-2.008,4.729s-1.242,2.588-1.855,3.573c-0.613,0.984-1.244,1.736-1.893,2.255
				c-0.646,0.519-1.362,0.778-2.149,0.776c-0.406-0.001-0.789-0.037-1.146-0.11c-0.357-0.072-0.681-0.163-0.97-0.271
				L589.842,150.377z"/>
			<path fill="#EEEEEE" d="M621.778,143.01l4.108-28.053l2.485,0.004l-0.707,4.834c0.902-1.97,1.908-3.516,2.978-4.346
				c1.143-0.883,2.561-1.434,4.214-1.434h0.115l0.005,0.217l-0.524,3.634l-0.308,0.02c-1.171,0-2.196,0.296-3.047,0.854
				c-0.91,0.596-1.694,1.422-2.331,2.445c-0.638,1.023-1.162,2.255-1.558,3.658c-0.396,1.414-0.71,2.904-0.933,4.425l-2.013,13.744
				L621.778,143.01z"/>
			<path fill="#EEEEEE" d="M624.178,142.914l-2.284-0.004l4.079-27.854l2.284,0.004l-0.764,5.215l0.076,0.001
				c0.96-2.221,2.006-3.771,3.135-4.646c1.133-0.876,2.523-1.314,4.174-1.311l-0.512,3.495c-1.29-0.037-2.397,0.247-3.323,0.854
				c-0.929,0.607-1.715,1.431-2.361,2.47c-0.647,1.038-1.17,2.266-1.569,3.681c-0.396,1.417-0.709,2.895-0.935,4.436
				L624.178,142.914z"/>
			<path fill="#EEEEEE" d="M651.59,144.016c-0.871,0-1.699-0.266-2.461-0.595c-0.763-0.327-1.414-0.895-1.935-1.59
				c-0.516-0.691-0.885-1.571-1.098-2.566c-0.213-0.993-0.219-2.203-0.019-3.571c0.697-4.757,3.456-7.609,8.2-8.464l3.247-0.589
				c0.442-0.07,0.969-0.178,1.584-0.32c0.604-0.138,1.115-0.333,1.522-0.577c0.393-0.236,0.678-0.642,0.847-1.206
				c0.171-0.576,0.295-1.124,0.369-1.626c0.236-1.62,0.062-2.965-0.518-3.999c-0.571-1.02-1.737-1.539-3.466-1.542
				c-0.785,0-1.517,0.097-2.187,0.288c-0.673,0.192-1.294,0.527-1.845,0.998c-0.552,0.471-1.049,1.112-1.479,1.905
				c-0.431,0.796-0.788,1.81-1.062,3.012l-0.018,0.078l-2.525-0.005l0.022-0.119c0.321-1.654,0.802-3.083,1.43-4.248
				c0.631-1.169,1.374-2.137,2.21-2.875c0.839-0.739,1.775-1.286,2.782-1.627c1.003-0.339,2.051-0.511,3.114-0.511
				c1.015,0.002,1.945,0.16,2.784,0.47c0.844,0.31,1.555,0.81,2.115,1.486c0.557,0.675,0.944,1.587,1.152,2.711
				c0.207,1.119,0.192,2.505-0.045,4.121l-2.221,15.163c-0.179,1.221-0.144,2,0.105,2.317c0.089,0.115,0.232,0.17,0.437,0.17
				c0.327,0,0.798-0.147,1.399-0.437l0.169-0.082l-0.405,2.771l-0.883,0.342c-0.372,0.146-0.732,0.22-1.07,0.22
				c-0.373-0.001-0.722-0.058-1.043-0.168c-0.382-0.075-0.686-0.261-0.889-0.549c-0.194-0.279-0.338-0.617-0.426-1.005
				c-0.085-0.381-0.121-0.805-0.106-1.261c0.011-0.343,0.039-0.699,0.087-1.081c-1.128,1.373-2.345,2.538-3.621,3.277
				c-1.364,0.788-2.792,1.284-4.242,1.284H651.59z M661.023,128.538c-0.996,0.524-1.988,0.874-2.951,1.041
				c-1.014,0.177-2.036,0.32-3.039,0.426c-1.752,0.174-3.193,0.725-4.282,1.636c-1.089,0.909-1.78,2.316-2.054,4.183
				c-0.123,0.845-0.111,1.583,0.034,2.195c0.144,0.609,0.381,1.121,0.703,1.521c0.32,0.397,0.723,0.696,1.195,0.887
				c0.478,0.192,0.982,0.291,1.5,0.292l0,0c0.903,0,1.81-0.159,2.702-0.473c0.894-0.316,1.73-0.805,2.487-1.455
				c0.754-0.648,1.415-1.488,1.966-2.497c0.546-1.003,0.926-2.212,1.129-3.596L661.023,128.538z"/>
			<path fill="#EEEEEE" d="M657.543,126.736c0.442-0.07,0.971-0.177,1.589-0.319c0.618-0.142,1.135-0.338,1.552-0.588
				c0.418-0.251,0.714-0.672,0.891-1.263c0.175-0.591,0.298-1.138,0.372-1.64c0.241-1.649,0.065-3.003-0.529-4.062
				c-0.593-1.059-1.779-1.59-3.553-1.594c-0.787-0.001-1.526,0.096-2.214,0.292c-0.688,0.196-1.315,0.534-1.882,1.018
				s-1.066,1.129-1.502,1.934c-0.436,0.806-0.794,1.819-1.072,3.037l-2.324-0.005c0.319-1.648,0.791-3.055,1.419-4.22
				c0.628-1.164,1.356-2.112,2.188-2.847c0.83-0.731,1.746-1.269,2.748-1.607s2.035-0.508,3.101-0.506
				c0.989,0.002,1.901,0.157,2.731,0.464c0.832,0.306,1.521,0.791,2.072,1.456c0.549,0.665,0.926,1.554,1.131,2.665
				c0.206,1.112,0.191,2.475-0.045,4.088l-2.221,15.163c-0.185,1.256-0.143,2.053,0.125,2.394c0.268,0.343,0.918,0.264,1.958-0.237
				l-0.37,2.526c-0.189,0.072-0.465,0.179-0.828,0.321c-0.364,0.143-0.711,0.214-1.041,0.213c-0.355-0.001-0.689-0.055-1.004-0.163
				c-0.369-0.073-0.649-0.243-0.839-0.512c-0.188-0.27-0.325-0.594-0.41-0.97c-0.084-0.377-0.118-0.788-0.104-1.236
				c0.015-0.45,0.061-0.924,0.135-1.427c-1.188,1.504-2.459,2.649-3.818,3.437c-1.358,0.784-2.762,1.177-4.208,1.174
				c-0.862-0.001-1.671-0.165-2.421-0.489c-0.754-0.323-1.384-0.827-1.895-1.51c-0.508-0.681-0.869-1.516-1.08-2.503
				c-0.211-0.986-0.217-2.16-0.018-3.523c0.693-4.731,3.4-7.523,8.119-8.374L657.543,126.736z M661.151,128.356
				c-1.049,0.572-2.079,0.947-3.097,1.124c-1.016,0.178-2.026,0.319-3.032,0.425c-1.777,0.177-3.224,0.729-4.336,1.659
				c-1.115,0.931-1.81,2.345-2.088,4.245c-0.125,0.859-0.114,1.604,0.035,2.232c0.148,0.627,0.391,1.148,0.723,1.561
				c0.333,0.413,0.745,0.719,1.236,0.917s1.004,0.298,1.537,0.299c0.914,0.001,1.824-0.158,2.735-0.479
				c0.909-0.321,1.749-0.812,2.52-1.474c0.77-0.662,1.431-1.504,1.988-2.524c0.556-1.021,0.935-2.23,1.14-3.629L661.151,128.356z"/>
			<path fill="#EEEEEE" d="M686.106,144.016c-1.615,0-2.95-0.455-3.969-1.22c-1.016-0.762-1.802-1.849-2.338-3.17
				c-0.533-1.312-0.838-2.905-0.906-4.704c-0.067-1.789,0.05-3.738,0.349-5.78c0.284-1.937,0.74-3.828,1.356-5.614
				c0.617-1.79,1.396-3.382,2.319-4.728c0.922-1.347,2.012-2.44,3.239-3.248c1.232-0.81,2.618-1.221,4.118-1.221
				c1.427,0.003,2.733,0.456,3.901,1.348c1.067,0.814,1.86,1.999,2.361,3.527l2.192-14.97l2.484,0.005l-5.699,38.916l-2.484-0.004
				l0.672-4.594c-0.421,0.766-0.92,1.487-1.477,2.112c-0.626,0.703-1.295,1.295-1.988,1.761c-0.688,0.465-1.396,0.891-2.102,1.144
				c-0.702,0.252-1.383,0.44-2.022,0.44H686.106z M689.769,117.437c-1,0-1.992,0.327-2.926,0.971
				c-0.945,0.651-1.671,1.554-2.385,2.683c-0.719,1.132-1.264,2.471-1.736,3.979c-0.475,1.517-0.789,3.167-0.992,4.903
				c-0.255,1.744-0.296,3.3-0.151,4.629c0.143,1.328,0.458,2.466,0.923,3.382c0.463,0.913,1.066,1.616,1.79,2.091
				c0.723,0.472,1.566,0.712,2.505,0.714l0,0c1.05,0,2.034-0.3,2.937-0.891c0.911-0.598,1.729-1.428,2.431-2.469
				c0.707-1.045,1.318-2.303,1.817-3.739c0.5-1.439,0.878-3.016,1.123-4.685c0.229-1.562,0.295-3.067,0.198-4.471
				c-0.096-1.399-0.353-2.638-0.763-3.683c-0.408-1.038-0.979-1.876-1.695-2.492c-0.713-0.61-1.821-0.92-2.831-0.922l-0.244-0.1
				V117.437z"/>
			<path fill="#EEEEEE" d="M698.816,104.337l2.283,0.005l-5.67,38.716l-2.283-0.004l0.716-4.894h-0.076
				c-0.466,0.932-1.012,1.746-1.634,2.444c-0.622,0.697-1.278,1.279-1.97,1.744c-0.688,0.465-1.383,0.821-2.08,1.071
				c-0.695,0.249-1.36,0.374-1.996,0.373c-1.599-0.004-2.902-0.383-3.908-1.139c-1.006-0.754-1.774-1.786-2.306-3.097
				c-0.532-1.31-0.831-2.86-0.899-4.654c-0.067-1.793,0.049-3.711,0.348-5.754c0.284-1.936,0.734-3.8,1.353-5.592
				c0.617-1.792,1.387-3.359,2.307-4.702c0.919-1.343,1.991-2.417,3.212-3.22c1.225-0.805,2.584-1.207,4.08-1.204
				c1.396,0.003,2.67,0.446,3.824,1.327c1.153,0.88,1.972,2.181,2.456,3.904L698.816,104.337z M695.202,129.02
				c0.23-1.577,0.297-3.074,0.199-4.492c-0.097-1.416-0.354-2.654-0.77-3.713c-0.416-1.058-0.99-1.901-1.723-2.531
				c-0.734-0.628-1.621-0.944-2.662-0.946c-1.191-0.002-2.269,0.327-3.227,0.988c-0.962,0.662-1.806,1.566-2.53,2.712
				c-0.728,1.146-1.329,2.481-1.806,4.003c-0.477,1.524-0.819,3.164-1.025,4.921c-0.257,1.756-0.312,3.307-0.166,4.651
				c0.145,1.345,0.453,2.484,0.927,3.417c0.473,0.935,1.079,1.643,1.82,2.129c0.741,0.484,1.593,0.729,2.558,0.73
				c1.066,0.002,2.063-0.3,2.99-0.907s1.747-1.44,2.459-2.497c0.714-1.057,1.323-2.311,1.828-3.762
				C694.579,132.272,694.955,130.705,695.202,129.02z"/>
			<path fill="#EEEEEE" d="M712.055,143.193l4.108-28.053l2.484,0.004l-4.108,28.053L712.055,143.193z M716.909,109.262l0.73-4.985
				l2.713,0.005l-0.73,4.985L716.909,109.262z"/>
			<path fill="#EEEEEE" d="M717.024,109.162l0.701-4.785l2.512,0.005l-0.701,4.785L717.024,109.162z M712.17,143.094l4.079-27.854
				l2.283,0.004l-4.079,27.854L712.17,143.094z"/>
			<path fill="#EEEEEE" d="M739.658,144.016c-1.28,0-2.446-0.381-3.471-0.997c-1.027-0.62-1.878-1.561-2.527-2.791
				c-0.65-1.228-1.089-2.78-1.302-4.611c-0.215-1.824-0.144-3.988,0.214-6.429c0.299-2.04,0.775-3.973,1.415-5.745
				c0.641-1.773,1.45-3.346,2.407-4.672c0.959-1.33,2.084-2.395,3.344-3.167c1.26-0.772,2.674-1.164,4.202-1.164
				c1.58,0.003,2.9,0.402,3.943,1.185c1.038,0.78,1.856,1.844,2.431,3.164c0.571,1.315,0.914,2.893,1.019,4.688
				c0.107,1.79,0.01,3.733-0.29,5.774c-0.324,2.217-0.84,4.25-1.535,6.043c-0.695,1.794-1.549,3.357-2.537,4.646
				c-0.994,1.295-2.124,2.313-3.36,3.011c-1.237,0.7-2.561,1.062-3.935,1.062H739.658z M743.769,117.545
				c-1,0-2.342,0.326-3.262,0.97c-0.934,0.651-1.814,1.526-2.498,2.603c-0.688,1.084-1.299,2.343-1.752,3.739
				c-0.458,1.401-0.816,2.869-1.036,4.365c-0.25,1.708-0.344,3.303-0.264,4.741c0.076,1.433,0.315,2.68,0.717,3.708
				c0.395,1.016,0.967,1.817,1.706,2.381c0.73,0.56,1.64,0.844,2.704,0.846c1.175,0,2.231-0.326,3.151-0.97
				c0.932-0.65,1.751-1.535,2.438-2.629c0.687-1.094,1.266-2.352,1.721-3.739c0.453-1.383,0.795-2.843,1.015-4.34
				c0.239-1.638,0.339-3.188,0.296-4.606c-0.043-1.417-0.254-2.666-0.627-3.709c-0.37-1.036-0.928-1.864-1.657-2.46
				c-0.728-0.593-1.573-0.895-2.762-0.897l0.11-0.1V117.545z"/>
			<path fill="#EEEEEE" d="M739.658,143.901c-1.265-0.04-2.403-0.364-3.419-0.976c-1.014-0.611-1.846-1.527-2.49-2.748
				c-0.646-1.22-1.078-2.745-1.291-4.574c-0.216-1.829-0.144-3.963,0.213-6.401c0.3-2.043,0.77-3.95,1.41-5.725
				c0.641-1.773,1.439-3.323,2.395-4.647c0.956-1.325,2.062-2.372,3.314-3.14c1.256-0.77,2.645-1.152,4.168-1.149
				c1.548,0.003,2.836,0.392,3.865,1.165c1.029,0.772,1.829,1.813,2.399,3.124c0.569,1.311,0.906,2.86,1.011,4.654
				c0.107,1.794,0.011,3.711-0.289,5.754c-0.325,2.225-0.836,4.231-1.529,6.021c-0.695,1.793-1.535,3.332-2.523,4.621
				c-0.99,1.29-2.099,2.282-3.33,2.979C742.329,143.557,741.028,143.904,739.658,143.901z M748.507,129.233
				c0.241-1.647,0.341-3.189,0.297-4.624c-0.043-1.435-0.254-2.682-0.633-3.74c-0.378-1.058-0.94-1.893-1.688-2.504
				c-0.75-0.611-1.732-0.918-2.951-0.92c-1.193-0.003-2.263,0.326-3.209,0.988c-0.949,0.662-1.769,1.538-2.461,2.631
				c-0.694,1.093-1.272,2.346-1.731,3.762c-0.463,1.416-0.804,2.876-1.024,4.381c-0.252,1.722-0.338,3.308-0.257,4.761
				c0.077,1.452,0.32,2.698,0.728,3.739c0.404,1.042,0.986,1.849,1.74,2.424c0.752,0.576,1.674,0.864,2.766,0.866
				c1.193,0.002,2.263-0.326,3.209-0.988c0.947-0.661,1.77-1.548,2.466-2.658c0.696-1.109,1.272-2.364,1.73-3.761
				C747.947,132.191,748.286,130.739,748.507,129.233z"/>
			<polygon fill="#EEEEEE" points="767.768,143.3 768.489,138.368 771.47,138.374 770.748,143.306 			"/>
			<path fill="#EEEEEE" d="M767.883,143.2l0.692-4.732l2.779,0.006l-0.692,4.732L767.883,143.2z"/>
			<path fill="#EEEEEE" d="M793.972,144.016c-1.588,0-2.923-0.345-3.967-1.109c-1.042-0.761-1.849-1.793-2.398-3.116
				c-0.547-1.315-0.871-2.88-0.963-4.676c-0.094-1.788,0.011-3.724,0.31-5.768c0.284-1.934,0.759-3.81,1.411-5.582
				c0.653-1.776,1.472-3.364,2.434-4.723c0.964-1.366,2.087-2.466,3.341-3.274c1.254-0.809,2.639-1.219,4.117-1.219
				c2.321,0.005,4.097,0.801,5.294,2.364c1.192,1.558,1.735,4.006,1.611,7.276l-0.003,0.096l-2.515-0.005l-0.004-0.095
				c-0.101-2.053-0.559-3.674-1.363-4.817c-0.796-1.134-1.95-1.71-3.43-1.713c-1.146,0-2.187,0.335-3.1,0.997
				c-0.922,0.67-1.739,1.573-2.428,2.684c-0.69,1.116-1.271,2.393-1.729,3.794c-0.455,1.402-0.792,2.834-1.002,4.258
				c-0.213,1.459-0.303,2.901-0.268,4.286c0.036,1.383,0.239,2.64,0.604,3.736c0.362,1.09,0.913,1.972,1.637,2.624
				c0.717,0.645,1.671,0.972,2.836,0.974c1.671,0,3.115-0.655,4.31-1.948c1.204-1.307,2.126-3.137,2.74-5.438l0.02-0.074
				l2.645,0.005l-0.035,0.126c-0.433,1.548-0.969,2.973-1.595,4.236c-0.635,1.278-1.379,2.389-2.211,3.299
				c-0.836,0.917-1.789,1.591-2.835,2.095c-1.043,0.501-2.201,0.708-3.442,0.708H793.972z"/>
			<path fill="#EEEEEE" d="M802.739,124.181c-0.102-2.08-0.561-3.703-1.381-4.87c-0.819-1.167-1.99-1.753-3.512-1.756
				c-1.168-0.002-2.221,0.337-3.158,1.016c-0.937,0.681-1.754,1.583-2.454,2.712c-0.697,1.128-1.277,2.4-1.739,3.815
				c-0.46,1.416-0.795,2.841-1.006,4.274c-0.215,1.471-0.305,2.903-0.269,4.303c0.036,1.397,0.239,2.654,0.609,3.766
				c0.37,1.112,0.926,2.001,1.665,2.666c0.74,0.666,1.707,0.998,2.902,1c1.699,0.004,3.16-0.656,4.383-1.98
				c1.221-1.324,2.143-3.151,2.764-5.48l2.436,0.005c-0.43,1.54-0.958,2.948-1.588,4.219c-0.631,1.271-1.361,2.364-2.195,3.276
				c-0.831,0.913-1.766,1.619-2.804,2.119c-1.038,0.499-2.178,0.749-3.421,0.746c-1.575-0.003-2.877-0.383-3.908-1.138
				c-1.032-0.754-1.819-1.786-2.364-3.098c-0.545-1.309-0.864-2.859-0.956-4.654c-0.094-1.793,0.01-3.711,0.309-5.754
				c0.284-1.936,0.753-3.791,1.406-5.564c0.652-1.773,1.459-3.341,2.422-4.701c0.96-1.361,2.064-2.444,3.312-3.248
				c1.246-0.804,2.606-1.206,4.079-1.203c2.283,0.005,4.017,0.78,5.199,2.324c1.183,1.545,1.714,3.948,1.591,7.211L802.739,124.181z
				"/>
			<path fill="#EEEEEE" d="M825.52,144.016c-1.281,0-2.448-0.294-3.471-0.911c-1.027-0.618-1.877-1.515-2.527-2.745
				c-0.649-1.225-1.088-2.755-1.303-4.589c-0.214-1.829-0.142-3.982,0.215-6.418c0.299-2.04,0.774-3.967,1.414-5.738
				c0.643-1.776,1.452-3.346,2.407-4.67c0.96-1.33,2.085-2.395,3.345-3.166c1.259-0.772,2.673-1.163,4.202-1.163
				c1.579,0.003,2.899,0.402,3.942,1.185c1.04,0.78,1.857,1.845,2.431,3.165c0.572,1.315,0.915,2.892,1.02,4.688
				c0.107,1.785,0.01,3.728-0.29,5.774c-0.325,2.217-0.841,4.25-1.534,6.043c-0.694,1.789-1.548,3.352-2.538,4.646
				c-0.993,1.295-2.124,2.226-3.361,2.925c-1.236,0.7-2.562,0.975-3.939,0.975H825.52z M829.769,117.72
				c-2,0-2.412,0.326-3.333,0.969c-0.933,0.652-1.849,1.528-2.531,2.604c-0.688,1.084-1.316,2.343-1.77,3.739
				c-0.457,1.401-0.823,2.869-1.042,4.365c-0.25,1.713-0.35,3.308-0.271,4.741c0.078,1.437,0.314,2.684,0.716,3.707
				c0.395,1.018,0.966,1.819,1.703,2.382c0.731,0.559,1.642,0.843,2.706,0.846c1.174,0,2.229-0.326,3.15-0.97
				c0.933-0.65,1.752-1.535,2.437-2.629c0.689-1.1,1.269-2.358,1.721-3.739c0.455-1.381,0.797-2.841,1.016-4.34
				c0.24-1.639,0.34-3.189,0.295-4.606c-0.043-1.417-0.254-2.666-0.626-3.71c-0.37-1.036-0.929-1.863-1.659-2.46
				c-0.726-0.594-1.501-0.896-2.69-0.897l0.18-0.1V117.72z"/>
			<path fill="#EEEEEE" d="M825.52,144.076c-1.265-0.04-2.404-0.364-3.419-0.977c-1.014-0.61-1.846-1.526-2.49-2.747
				c-0.647-1.22-1.078-2.746-1.292-4.574c-0.214-1.829-0.143-3.963,0.214-6.401c0.3-2.043,0.77-3.951,1.409-5.725
				c0.642-1.773,1.439-3.323,2.395-4.647c0.956-1.325,2.062-2.372,3.315-3.14c1.255-0.77,2.646-1.152,4.168-1.149
				c1.547,0.003,2.835,0.392,3.865,1.165c1.029,0.772,1.829,1.813,2.398,3.124c0.57,1.311,0.907,2.86,1.012,4.654
				c0.107,1.794,0.01,3.711-0.289,5.754c-0.326,2.225-0.837,4.231-1.529,6.021c-0.695,1.793-1.537,3.332-2.523,4.621
				c-0.99,1.29-2.1,2.282-3.331,2.979C828.19,143.731,826.89,144.078,825.52,144.076z M834.368,129.408
				c0.242-1.647,0.342-3.189,0.296-4.624c-0.043-1.435-0.254-2.682-0.632-3.74c-0.378-1.058-0.941-1.893-1.689-2.504
				c-0.747-0.611-1.732-0.918-2.949-0.92c-1.193-0.003-2.264,0.326-3.211,0.987c-0.947,0.663-1.767,1.539-2.46,2.632
				c-0.694,1.093-1.272,2.346-1.731,3.762c-0.462,1.416-0.802,2.876-1.021,4.381c-0.252,1.722-0.34,3.308-0.26,4.761
				c0.078,1.451,0.32,2.698,0.729,3.738c0.404,1.043,0.984,1.85,1.738,2.425s1.676,0.863,2.768,0.866
				c1.191,0.002,2.262-0.326,3.209-0.988c0.947-0.661,1.77-1.548,2.465-2.658c0.695-1.109,1.273-2.364,1.73-3.761
				C833.81,132.366,834.148,130.914,834.368,129.408z"/>
			<path fill="#EEEEEE" d="M879.827,143.521l3.431-19.367c0.351-1.979,0.271-3.552-0.234-4.676c-0.5-1.104-1.724-1.666-3.635-1.668
				c-0.997,0-2.008,0.257-3.017,0.764c-1.013,0.511-1.973,1.307-2.854,2.364c-0.382,0.457-0.731,1.001-1.038,1.619
				c-0.313,0.633-0.591,1.29-0.824,1.951c-0.24,0.666-0.446,1.35-0.614,2.035c-0.167,0.678-0.3,1.303-0.4,1.874l-2.672,15.085
				l-2.966-0.004l3.431-19.367c0.351-1.979,0.271-3.553-0.238-4.675c-0.497-1.104-1.719-1.665-3.632-1.669
				c-0.993,0-2.006,0.257-3.017,0.764c-1.013,0.511-1.973,1.307-2.854,2.364c-0.383,0.458-0.731,1.002-1.037,1.619
				c-0.314,0.635-0.592,1.291-0.825,1.951c-0.238,0.658-0.444,1.342-0.614,2.035c-0.166,0.678-0.3,1.304-0.4,1.875l-2.672,15.085
				l-2.967-0.005l4.969-28.053l2.967,0.005l-0.698,3.943c0.974-1.453,2.171-2.615,3.568-3.416c1.473-0.843,3.016-1.27,4.585-1.27
				c1.128,0.002,2.06,0.151,2.787,0.443c0.724,0.291,1.325,0.689,1.789,1.184c0.459,0.496,0.813,1.078,1.053,1.73
				c0.215,0.581,0.379,1.203,0.489,1.854c1.095-1.718,2.377-3.017,3.813-3.861c1.495-0.878,3.126-1.324,4.847-1.324
				c1.658,0.003,2.932,0.328,3.803,0.967c0.868,0.641,1.483,1.491,1.829,2.526c0.343,1.028,0.483,2.226,0.417,3.56
				c-0.065,1.319-0.225,2.699-0.471,4.1l-3.13,17.666L879.827,143.521z"/>
			<path fill="#EEEEEE" d="M853.06,143.377l-2.764-0.005l4.934-27.854l2.764,0.005l-0.743,4.193h0.091
				c0.992-1.611,2.224-2.838,3.691-3.679c1.468-0.84,2.988-1.26,4.552-1.257c1.105,0.002,2.018,0.148,2.733,0.436
				c0.716,0.288,1.299,0.675,1.753,1.159c0.448,0.484,0.795,1.051,1.032,1.696c0.238,0.646,0.416,1.345,0.526,2.099
				c1.123-1.828,2.431-3.179,3.921-4.055s3.096-1.313,4.813-1.311c1.628,0.003,2.869,0.319,3.727,0.947
				c0.853,0.63,1.451,1.455,1.793,2.478c0.341,1.022,0.478,2.198,0.412,3.523c-0.066,1.327-0.224,2.689-0.47,4.088l-3.115,17.583
				l-2.764-0.004l3.41-19.25c0.355-2.008,0.275-3.586-0.242-4.734c-0.52-1.147-1.76-1.725-3.726-1.728
				c-1.013-0.002-2.033,0.258-3.062,0.774c-1.029,0.52-1.991,1.315-2.887,2.39c-0.39,0.466-0.739,1.012-1.051,1.639
				c-0.31,0.627-0.588,1.281-0.829,1.962c-0.245,0.682-0.449,1.362-0.616,2.044c-0.168,0.681-0.301,1.308-0.402,1.88l-2.657,15.003
				l-2.763-0.004l3.41-19.25c0.355-2.008,0.274-3.586-0.246-4.734c-0.517-1.147-1.757-1.724-3.723-1.728
				c-1.014-0.001-2.031,0.258-3.062,0.774c-1.029,0.52-1.991,1.315-2.887,2.39c-0.39,0.466-0.739,1.012-1.05,1.639
				c-0.311,0.628-0.589,1.281-0.83,1.962c-0.246,0.682-0.449,1.362-0.616,2.044c-0.167,0.681-0.301,1.309-0.402,1.881
				L853.06,143.377z"/>
		</g>
		<path fill="#EEEEEE" d="M151.003,418.795l-3.774,37.686l-5.903-0.109l8.299-82.862l24.524-0.024
			c6.897-0.007,12.002,1.698,15.312,5.112c3.311,3.416,4.58,8.967,3.812,16.647c-0.524,5.227-1.737,9.376-3.639,12.449
			c-1.902,3.075-4.757,5.691-8.567,7.846c1.77,0.844,3.096,2.07,3.979,3.683c0.881,1.612,1.479,3.455,1.793,5.53
			c0.313,2.073,0.428,4.263,0.342,6.569c-0.087,2.303-0.208,4.532-0.366,6.683c-0.258,3.151-0.417,5.762-0.48,7.836
			c-0.063,2.074-0.059,3.765,0.014,5.07c0.072,1.307,0.217,2.325,0.433,3.055c0.217,0.729,0.509,1.286,0.876,1.669l-0.068,0.69
			l-6.534,0.122c-0.5-1.382-0.756-3.302-0.771-5.761c-0.014-2.458,0.04-5.031,0.166-7.72c0.123-2.688,0.269-5.302,0.437-7.837
			c0.167-2.535,0.214-4.609,0.144-6.224c-0.124-2.227-0.511-4.013-1.158-5.356c-0.648-1.343-1.49-2.361-2.521-3.052
			c-1.032-0.689-2.219-1.149-3.556-1.38c-1.341-0.228-2.736-0.343-4.184-0.342L151.003,418.795z M170.107,412.092
			c2.203-0.002,4.278-0.311,6.224-0.928c1.945-0.615,3.681-1.597,5.207-2.943c1.527-1.346,2.798-3.058,3.818-5.133
			c1.019-2.075,1.675-4.571,1.968-7.491c0.308-3.073,0.141-5.608-0.498-7.606c-0.642-1.996-1.614-3.57-2.919-4.721
			c-1.306-1.151-2.847-1.956-4.627-2.415c-1.78-0.46-3.656-0.689-5.627-0.688l-18.783,0.02l-3.197,31.925L170.107,412.092z"/>
		<path fill="#EEEEEE" d="M210.927,456.416l34.706-83.003l7.059-0.006l16.542,82.953l-6.417,0.006l-4.859-25.039l-30.07,0.028
			l-10.544,25.055L210.927,456.416z M229.128,425.651l27.14,0.031l-8.042-45.589L229.128,425.651z"/>
		<path fill="#EEEEEE" d="M294.172,456.249l9.392-82.818l20.635-0.017c1.678-0.001,3.319,0.055,4.929,0.169
			c1.608,0.114,3.172,0.381,4.691,0.801c1.517,0.422,2.97,1.052,4.355,1.896c1.386,0.842,2.701,1.951,3.942,3.332
			c1.787,1.991,3.175,3.426,4.138,6.302c0.96,2.873,1.62,6.9,2.014,10.081c0.394,3.183,0.561,6.403,0.498,9.66
			c-0.063,3.261-0.25,6.27-0.562,9.03c-0.313,2.761-0.757,5.562-1.33,8.397c-0.573,2.838-1.296,5.619-2.161,8.34
			c-0.87,2.724-1.906,5.332-3.111,7.824c-1.205,2.494-2.625,4.775-4.258,6.848c-1.642,2.146-3.361,3.875-5.157,5.18
			c-1.8,1.306-3.648,2.323-5.547,3.051c-1.901,0.732-3.845,1.232-5.831,1.5c-1.989,0.271-3.989,0.406-6.002,0.408L294.172,456.249z
			 M301.611,449.573l12.694-0.011c2.571-0.003,5.015-0.215,7.328-0.64c2.312-0.42,4.739-1.478,7.279-3.168
			c2.169-1.382,4.03-3.261,5.588-5.641c1.554-2.376,2.87-4.965,3.941-7.767c1.073-2.799,1.936-5.733,2.592-8.801
			c0.654-3.066,1.144-6.021,1.465-8.857c0.339-2.99,0.545-6.038,0.618-9.145c0.071-3.104-0.124-6.056-0.589-8.854
			c-0.467-2.799-1.238-5.366-2.313-7.704c-1.078-2.338-2.592-4.271-4.543-5.806c-1.641-1.3-3.67-2.143-6.088-2.524
			s-4.883-0.572-7.399-0.57l-12.695,0.011L301.611,449.573z"/>
		<path fill="#EEEEEE" d="M377.062,456.251l8.311-82.978l5.913-0.007l-8.31,82.979L377.062,456.251z"/>
		<path fill="#EEEEEE" d="M418.687,414.839c0.607-6.068,1.74-11.756,3.401-17.058c1.659-5.304,3.792-9.933,6.393-13.893
			c2.603-3.958,5.646-7.093,9.134-9.401c3.486-2.309,7.357-3.465,11.611-3.469c4.41-0.005,8.17,1.126,11.279,3.388
			c3.107,2.266,5.578,5.374,7.416,9.327c1.834,3.956,3.049,8.603,3.646,13.94c0.59,5.341,0.586,11.044-0.021,17.112
			c-0.602,5.993-1.73,11.623-3.385,16.885c-1.658,5.266-3.785,9.877-6.387,13.835c-2.604,3.96-5.674,7.094-9.215,9.4
			c-3.539,2.309-7.488,3.466-11.846,3.47c-4.359,0.005-8.077-1.145-11.154-3.446c-3.078-2.3-5.522-5.43-7.332-9.384
			c-1.809-3.954-3.002-8.562-3.577-13.825C418.074,426.46,418.086,420.832,418.687,414.839z M441.46,451.691
			c3.677-0.004,6.943-1.023,9.8-3.062c2.854-2.038,5.307-4.75,7.352-8.132c2.043-3.383,3.695-7.302,4.959-11.761
			c1.258-4.455,2.131-9.104,2.619-13.945c0.574-5.763,0.607-10.928,0.094-15.499c-0.516-4.568-1.529-8.469-3.043-11.693
			c-1.518-3.225-3.502-5.681-5.959-7.369c-2.457-1.688-5.314-2.529-8.57-2.526c-3.623,0.004-6.865,1.044-9.723,3.12
			c-2.861,2.078-5.316,4.828-7.365,8.248c-2.048,3.42-3.702,7.361-4.963,11.816c-1.261,4.459-2.133,9.106-2.618,13.946
			c-0.492,4.919-0.556,9.604-0.187,14.058c0.367,4.458,1.234,8.374,2.604,11.753c1.367,3.38,3.278,6.066,5.731,8.06
			C434.642,450.702,437.733,451.695,441.46,451.691z"/>
	</g>
	<g>
		<linearGradient id="SVGID_13_" gradientUnits="userSpaceOnUse" x1="408.5063" y1="233.5156" x2="408.5063" y2="203.4989">
			<stop  offset="0" style="stop-color:#FF7300"/>
			<stop  offset="1" style="stop-color:#FE4F16"/>
		</linearGradient>
		<path fill-rule="evenodd" clip-rule="evenodd" fill="url(#SVGID_13_)" d="M409.779,245.632c-0.549-0.37-1.09-0.651-1.539-1.042
			c-8.15-7.127-11.68-16.125-10.395-26.833c1.387-11.553,7.618-20.168,16.987-26.715c0.272-0.189,0.611-0.284,1.05-0.48l3.542,4.923
			c0,0-1.323,0.785-1.924,1.235c-3.489,2.604-6.425,5.708-8.74,9.404c-2.671,4.264-4.15,8.931-4.376,13.924
			c-0.333,7.415,2.223,13.772,7.495,19.016c0.673,0.671,1.373,1.315,2.136,2.044L409.779,245.632z"/>
		<linearGradient id="SVGID_14_" gradientUnits="userSpaceOnUse" x1="463.3096" y1="233.5156" x2="463.3096" y2="203.499">
			<stop  offset="0" style="stop-color:#FF7300"/>
			<stop  offset="1" style="stop-color:#FE4F16"/>
		</linearGradient>
		<path fill-rule="evenodd" clip-rule="evenodd" fill="url(#SVGID_14_)" d="M455.767,245.634c-1.231-1.511-2.3-2.766-3.101-4.439
			c0.781-0.621,1.52-1.21,2.259-1.8c4.342-3.448,7.823-7.583,9.978-12.726c2.446-5.842,3.142-11.842,1.391-18.028
			c-1.252-4.427-3.603-8.17-6.936-11.314c-0.637-0.602-1.3-1.176-2.069-1.867c1.117-1.914,2.758-3.318,4.358-4.917
			c0.49,0.287,0.977,0.485,1.356,0.806c7.012,5.954,10.849,13.451,10.949,22.734c0.108,9.838-3.598,18.154-10.283,25.193
			c-1.862,1.962-4.07,3.601-6.15,5.355C457.064,245.011,456.479,245.232,455.767,245.634z"/>
		<linearGradient id="SVGID_15_" gradientUnits="userSpaceOnUse" x1="416.2871" y1="233.5156" x2="416.2871" y2="203.499">
			<stop  offset="0" style="stop-color:#FF7300"/>
			<stop  offset="1" style="stop-color:#FE4F16"/>
		</linearGradient>
		<path fill-rule="evenodd" clip-rule="evenodd" fill="url(#SVGID_15_)" d="M418.576,206.821c1.276-1.435,2.81-2.64,4.218-3.959
			c0.361-0.337,0.695-0.705,1.1-1.121c-0.788-1.111-1.602-2.197-2.297-3.179c-0.403,0.163-0.554,0.316-0.757,0.457
			c-6.594,4.582-10.93,10.676-11.956,18.743c-0.938,7.369,1.366,13.696,6.895,18.755c0.443,0.405,0.973,0.713,1.436,1.048
			l2.751-3.222c-0.586-0.598-1.212-1.206-1.804-1.844c-3.393-3.666-5.033-8.024-4.78-12.992
			C413.625,214.707,415.375,210.422,418.576,206.821z"/>
		<linearGradient id="SVGID_16_" gradientUnits="userSpaceOnUse" x1="455.4502" y1="233.5156" x2="455.4502" y2="203.499">
			<stop  offset="0" style="stop-color:#FF7300"/>
			<stop  offset="1" style="stop-color:#FE4F16"/>
		</linearGradient>
		<path fill-rule="evenodd" clip-rule="evenodd" fill="url(#SVGID_16_)" d="M451.036,202.246c0.4-0.601,0.555-0.908,0.777-1.152
			c0.766-0.837,1.555-1.653,2.37-2.516c0.551,0.383,1.017,0.639,1.401,0.985c5.89,5.303,8.197,11.94,7.002,19.71
			c-1.145,7.43-5.207,13.115-11.152,17.547c-0.279,0.208-0.593,0.376-0.909,0.522c-0.147,0.067-0.337,0.036-0.631,0.058
			c-0.725-0.771-1.494-1.588-1.886-2.837c0.597-0.501,1.186-1.001,1.781-1.498c3.52-2.935,6.22-6.447,7.521-10.897
			c2.179-7.43,0.598-13.88-5.137-19.2C451.856,202.673,451.431,202.492,451.036,202.246z"/>
		<linearGradient id="SVGID_17_" gradientUnits="userSpaceOnUse" x1="422.8442" y1="233.5156" x2="422.8442" y2="203.499">
			<stop  offset="0" style="stop-color:#FF7300"/>
			<stop  offset="1" style="stop-color:#FE4F16"/>
		</linearGradient>
		<path fill-rule="evenodd" clip-rule="evenodd" fill="url(#SVGID_17_)" d="M425.229,229.173c-0.606-0.691-1.137-1.258-1.625-1.86
			c-2.331-2.876-3.25-6.108-2.601-9.804c0.534-3.044,1.92-5.605,4.068-7.776c0.676-0.683,1.443-1.274,2.14-1.937
			c0.17-0.162,0,0,0.652-0.422c-0.417-0.529-1.194-1.545-1.578-2.031c-0.47,0.248-0.414,0.215-0.547,0.307
			c-3.6,2.458-6.156,5.73-7.292,9.95c-1.48,5.498-0.337,10.398,3.781,14.467c0.355,0.352,0.819,0.592,1.336,0.957
			C424.149,230.372,424.657,229.809,425.229,229.173z"/>
		<linearGradient id="SVGID_18_" gradientUnits="userSpaceOnUse" x1="448.9932" y1="233.5156" x2="448.9932" y2="203.499">
			<stop  offset="0" style="stop-color:#FF7300"/>
			<stop  offset="1" style="stop-color:#FE4F16"/>
		</linearGradient>
		<path fill-rule="evenodd" clip-rule="evenodd" fill="url(#SVGID_18_)" d="M445.283,230.921c-0.398-0.513-0.762-0.98-1.081-1.391
			c0.141-1.024,0.963-1.326,1.517-1.835c2.525-2.318,4.239-5.068,4.872-8.488c0.7-3.792-0.259-7.097-2.689-10.024
			c-0.28-0.336-0.605-0.633-0.899-0.957c-0.229-0.253-0.444-0.52-0.778-0.913c0.598-0.662,1.155-1.283,1.805-2.002
			c2.865,1.944,4.458,4.558,5.281,7.683c1.086,4.124,0.24,7.982-1.79,11.632c-1.293,2.331-3.109,4.218-5.223,5.819
			C446.03,230.647,445.684,230.739,445.283,230.921z"/>
	</g>
	<g>
	</g>
	<g>
	</g>
	<g>
	</g>
	<g>
	</g>
	<g>
	</g>
	<g>
	</g>
	<g>
	</g>
	<g>
	</g>
	<g>
	</g>
	<g>
	</g>
	<g>
	</g>
	<g>
	</g>
	<g>
	</g>
	<g>
	</g>
	<g>
	</g>
</g>
</svg>
