<?xml version="1.0" encoding="utf-8"?>
<!-- Generator: Adobe Illustrator 16.0.4, SVG Export Plug-In . SVG Version: 6.00 Build 0)  -->
<!DOCTYPE svg PUBLIC "-//W3C//DTD SVG 1.0//EN" "http://www.w3.org/TR/2001/REC-SVG-20010904/DTD/svg10.dtd">
<svg version="1.0" id="Layer_1" xmlns="http://www.w3.org/2000/svg" xmlns:xlink="http://www.w3.org/1999/xlink" x="0px" y="0px"
	 width="749.692px" height="608.757px" viewBox="0 0 749.692 608.757" enable-background="new 0 0 749.692 608.757"
	 xml:space="preserve">
<path fill-rule="evenodd" clip-rule="evenodd" fill="#333333" d="M338.973,608.757c-21.985-20.009-43.31-39.34-64.55-58.763
	c-29.348-26.833-58.582-53.791-88.02-80.524c-2.854-2.59-3.918-4.744-3.489-8.695c8.228-75.681,16.261-151.384,24.337-227.08
	c1.844-17.277,4.085-34.523,5.393-51.84c0.656-8.692,5.917-13.54,11.949-18.091c17.71-13.36,38.158-20.724,59.508-25.258
	c71.436-15.173,142.965-15.928,214.256,0.868c18.758,4.42,36.57,11.537,51.236,24.959c6.137,5.616,7.979,11.578,7.012,20.004
	c-6.1,53.142-11.615,106.351-17.295,159.54c-4.199,39.326-8.309,78.662-12.652,117.973c-0.24,2.178-1.762,4.795-3.51,6.136
	c-44.354,34.048-88.818,67.953-133.262,101.885C373.039,582.731,356.195,595.602,338.973,608.757z"/>
<g>
	<linearGradient id="SVGID_1_" gradientUnits="userSpaceOnUse" x1="374.8462" y1="413.1738" x2="374.8462" y2="227.1068">
		<stop  offset="0" style="stop-color:#FF7300"/>
		<stop  offset="1" style="stop-color:#FE4F16"/>
	</linearGradient>
	<path fill-rule="evenodd" clip-rule="evenodd" fill="url(#SVGID_1_)" d="M449.753,2.358c69.307,6.133,134.242,25.459,192.309,64.71
		c45.074,30.471,80.055,69.543,97.297,122.074c19.352,58.946,10.695,115.249-19.064,168.812
		c-6.271,11.286-16.768,25.895-24.537,38.135c5.232-16.86,11.008-28.235,14.371-51.088c7.017-47.673-1.16-91.722-26.461-132.408
		c-31.107-50.025-76.67-82.584-130.17-104.955c-36.629-15.316-74.865-24.255-114.42-27.724
		c-105.67-9.268-203.798,12.747-292.495,71.828c-46.724,31.122-83.813,71.156-106.44,123.4
		c-13.523,31.226-18.857,63.901-15.951,97.619c1.016,11.788,1.016,11.788,4.083,23.716C17.636,379.02,8.271,355.289,4.289,335.364
		c-13.121-65.656,4.555-124.045,43.584-176.663C88.321,104.17,142.486,67.23,204.195,40.649
		c45.623-19.652,93.221-31.971,142.654-37.026c11.359-1.162,22.771-1.804,34.15-2.794c1.332-0.117,14.256-1.05,28.457-0.779
		C426.324,0.37,445.087,1.945,449.753,2.358z"/>
	<linearGradient id="SVGID_2_" gradientUnits="userSpaceOnUse" x1="128.8545" y1="413.1738" x2="128.8545" y2="227.1066">
		<stop  offset="0" style="stop-color:#FF7300"/>
		<stop  offset="1" style="stop-color:#FE4F16"/>
	</linearGradient>
	<path fill-rule="evenodd" clip-rule="evenodd" fill="url(#SVGID_2_)" d="M102.697,236.112c24.768,0,48.286,0,72.854,0
		c-0.642,7.733-1.093,15.355-1.93,22.935c-4.456,40.324-9.06,80.631-13.503,120.957c-1.623,14.723-4.762,49.784-4.762,49.784
		c-22.587,0.358-49.182,0.25-73.199,0.25C89.041,365.05,95.841,300.84,102.697,236.112z"/>
	<linearGradient id="SVGID_3_" gradientUnits="userSpaceOnUse" x1="607.4624" y1="413.1738" x2="607.4624" y2="227.1067">
		<stop  offset="0" style="stop-color:#FF7300"/>
		<stop  offset="1" style="stop-color:#FE4F16"/>
	</linearGradient>
	<path fill-rule="evenodd" clip-rule="evenodd" fill="url(#SVGID_3_)" d="M581.509,236.338c24.301,0,48.176,0,72.879,0
		c-1.111,11.218-2.105,22.021-3.266,32.807c-2.119,19.701-4.326,39.393-6.514,59.087c-2.588,23.312-5.193,46.62-7.795,69.929
		c-0.986,8.826-2.924,31.899-2.924,31.899c-20.117-0.156-53.236-0.167-73.354,0.013c0,0,4.33-36.792,5.934-52.194
		c2.053-19.705,4.195-39.402,6.309-59.103c2.551-23.783,5.117-47.563,7.664-71.348C580.826,243.845,581.134,240.254,581.509,236.338
		z"/>
	<linearGradient id="SVGID_4_" gradientUnits="userSpaceOnUse" x1="64.5342" y1="413.1738" x2="64.5342" y2="227.1062">
		<stop  offset="0" style="stop-color:#FF7300"/>
		<stop  offset="1" style="stop-color:#FE4F16"/>
	</linearGradient>
	<path fill-rule="evenodd" clip-rule="evenodd" fill="url(#SVGID_4_)" d="M44.947,386.377c3.898-36.629,7.651-71.892,11.42-107.295
		c9.588,0,18.374,0,27.755,0c-2.506,22.653-4.99,44.809-7.396,66.975c-1.18,10.874-4.77,40.32-4.77,40.32
		S52.601,386.377,44.947,386.377z"/>
	<linearGradient id="SVGID_5_" gradientUnits="userSpaceOnUse" x1="672.3667" y1="413.1738" x2="672.3667" y2="227.1067">
		<stop  offset="0" style="stop-color:#FF7300"/>
		<stop  offset="1" style="stop-color:#FE4F16"/>
	</linearGradient>
	<path fill-rule="evenodd" clip-rule="evenodd" fill="url(#SVGID_5_)" d="M691.568,278.771c-1.223,12.057-2.281,23.102-3.475,34.133
		c-2.105,19.482-7.969,73.313-7.969,73.313s-21.887-0.001-26.959-0.001c0.848-9.5,1.545-18.476,2.467-27.427
		c2.08-20.179,4.279-40.344,6.41-60.516c0.525-4.988,0.967-14.607,1.582-19.503C663.625,278.771,682.964,278.771,691.568,278.771z"
		/>
</g>
<g>
</g>
<g>
</g>
<g>
</g>
<g>
</g>
<g>
</g>
<g>
</g>
<g>
</g>
<g>
</g>
<g>
</g>
<g>
</g>
<g>
</g>
<g>
</g>
<g>
</g>
<g>
</g>
<g>
</g>
</svg>
